<svg width="24" height="24" viewBox="0 0 24 24" fill="none" xmlns="http://www.w3.org/2000/svg">
<path d="M2 17L1.02986 17.2425C1.14115 17.6877 1.54113 18 2 18V17ZM1 13L0.105573 12.5528C-0.00118208 12.7663 -0.0280385 13.011 0.0298575 13.2425L1 13ZM4 7V6C3.62123 6 3.27496 6.214 3.10557 6.55279L4 7ZM13 7L13.7071 6.29289C13.5196 6.10536 13.2652 6 13 6V7ZM17 11L16.2929 11.7071C16.4403 11.8545 16.63 11.9521 16.8356 11.9864L17 11ZM23 12H24C24 11.5112 23.6466 11.094 23.1644 11.0136L23 12ZM23 17V18C23.5523 18 24 17.5523 24 17H23ZM2.97014 16.7575L1.97014 12.7575L0.0298575 13.2425L1.02986 17.2425L2.97014 16.7575ZM1.89443 13.4472L4.89443 7.44721L3.10557 6.55279L0.105573 12.5528L1.89443 13.4472ZM4 8H13V6H4V8ZM12.2929 7.70711L16.2929 11.7071L17.7071 10.2929L13.7071 6.29289L12.2929 7.70711ZM16.8356 11.9864L22.8356 12.9864L23.1644 11.0136L17.1644 10.0136L16.8356 11.9864ZM22 12V17H24V12H22ZM8.5 17C8.5 17.8284 7.82843 18.5 7 18.5V20.5C8.933 20.5 10.5 18.933 10.5 17H8.5ZM7 18.5C6.17157 18.5 5.5 17.8284 5.5 17H3.5C3.5 18.933 5.067 20.5 7 20.5V18.5ZM5.5 17C5.5 16.1716 6.17157 15.5 7 15.5V13.5C5.067 13.5 3.5 15.067 3.5 17H5.5ZM7 15.5C7.82843 15.5 8.5 16.1716 8.5 17H10.5C10.5 15.067 8.933 13.5 7 13.5V15.5ZM19.5 17C19.5 17.8284 18.8284 18.5 18 18.5V20.5C19.933 20.5 21.5 18.933 21.5 17H19.5ZM18 18.5C17.1716 18.5 16.5 17.8284 16.5 17H14.5C14.5 18.933 16.067 20.5 18 20.5V18.5ZM16.5 17C16.5 16.1716 17.1716 15.5 18 15.5V13.5C16.067 13.5 14.5 15.067 14.5 17H16.5ZM18 15.5C18.8284 15.5 19.5 16.1716 19.5 17H21.5C21.5 15.067 19.933 13.5 18 13.5V15.5ZM2 18H4.5V16H2V18ZM9.5 18H15.5V16H9.5V18ZM20.5 18H23V16H20.5V18Z" fill="#65BCBF"/>
</svg>
