<svg width="24" height="24" viewBox="0 0 24 24" fill="none" xmlns="http://www.w3.org/2000/svg">
<path d="M16 20V21H16.8471L16.9864 20.1644L16 20ZM8 20L7.01361 20.1644L7.15287 21H8V20ZM5 8L4.02986 7.75746C3.95517 8.05621 4.02229 8.3727 4.21179 8.61541C4.4013 8.85813 4.69206 9 5 9V8ZM19 8V9C19.3079 9 19.5987 8.85813 19.7882 8.61541C19.9777 8.3727 20.0448 8.05621 19.9701 7.75746L19 8ZM18.1894 4.75746L17.2192 5L18.1894 4.75746ZM6 9H18V7H6V9ZM17.0136 7.8356L15.0136 19.8356L16.9864 20.1644L18.9864 8.1644L17.0136 7.8356ZM16 19H8V21H16V19ZM8.98639 19.8356L6.98639 7.8356L5.01361 8.1644L7.01361 20.1644L8.98639 19.8356ZM6 7H5V9H6V7ZM5.97014 8.24254L6.78078 5L4.84049 4.51493L4.02986 7.75746L5.97014 8.24254ZM17.2192 5L18.0299 8.24254L19.9701 7.75746L19.1595 4.51493L17.2192 5ZM19 7H18V9H19V7ZM6.78078 5H17.2192V3H6.78078V5ZM19.1595 4.51493C18.9369 3.6246 18.137 3 17.2192 3V5L19.1595 4.51493ZM6.78078 5L6.78078 5V3C5.86304 3 5.06308 3.62459 4.84049 4.51493L6.78078 5Z" fill="#65BCBF"/>
</svg>
